<svg width="20" height="20" viewBox="0 0 20 20" fill="none" xmlns="http://www.w3.org/2000/svg">
<path fill-rule="evenodd" clip-rule="evenodd" d="M16.7031 13.5751H15.3625V4.19072C15.3625 3.83517 15.2213 3.49417 14.9698 3.24276C14.7184 2.99134 14.3774 2.8501 14.0219 2.8501H4.19063C3.83507 2.8501 3.49408 2.99134 3.24267 3.24276C2.99125 3.49417 2.85001 3.83517 2.85001 4.19072V6.87197C2.85001 6.99049 2.89709 7.10415 2.98089 7.18796C3.0647 7.27176 3.17836 7.31884 3.29688 7.31884H4.6375V15.8095C4.6375 16.165 4.77875 16.506 5.03016 16.7574C5.28158 17.0088 5.62257 17.1501 5.97813 17.1501H15.8094C16.1649 17.1501 16.5059 17.0088 16.7573 16.7574C17.0087 16.506 17.15 16.165 17.15 15.8095V14.022C17.15 13.9034 17.1029 13.7898 17.0191 13.706C16.9353 13.6222 16.8216 13.5751 16.7031 13.5751ZM3.74376 4.19072C3.74376 4.0722 3.79084 3.95854 3.87464 3.87473C3.95845 3.79093 4.07211 3.74385 4.19063 3.74385C4.30915 3.74385 4.42281 3.79093 4.50662 3.87473C4.59042 3.95854 4.6375 4.0722 4.6375 4.19072V6.42509H3.74376V4.19072ZM6.425 14.022V15.8095C6.42418 15.8689 6.4115 15.9276 6.38771 15.9821C6.36392 16.0365 6.32951 16.0857 6.28647 16.1267C6.24686 16.1685 6.19899 16.2016 6.14591 16.2239C6.09283 16.2462 6.0357 16.2573 5.97813 16.2563C5.85961 16.2563 5.74595 16.2093 5.66214 16.1255C5.57834 16.0416 5.53125 15.928 5.53125 15.8095V4.19072C5.53005 4.03827 5.50284 3.88715 5.45082 3.74385H14.0219C14.1404 3.74385 14.2541 3.79093 14.3379 3.87473C14.4217 3.95854 14.4687 4.0722 14.4687 4.19072V13.5751H6.87188C6.75336 13.5751 6.63969 13.6222 6.55589 13.706C6.47208 13.7898 6.425 13.9034 6.425 14.022ZM16.2562 15.8095C16.2554 15.8689 16.2427 15.9276 16.219 15.9821C16.1952 16.0365 16.1607 16.0857 16.1177 16.1267C16.0781 16.1685 16.0302 16.2016 15.9772 16.2239C15.9241 16.2462 15.8669 16.2573 15.8094 16.2563H7.24278C7.29329 16.1128 7.31898 15.9617 7.31875 15.8095V14.4688H16.2562V15.8095ZM11.752 10.0001H8.17702C8.0585 10.0001 7.94484 10.0472 7.86103 10.131C7.77723 10.2148 7.73015 10.3285 7.73015 10.447C7.73015 10.5655 7.77723 10.6792 7.86103 10.763C7.94484 10.8468 8.0585 10.8939 8.17702 10.8939H11.752C11.8705 10.8939 11.9842 10.8468 12.068 10.763C12.1518 10.6792 12.1989 10.5655 12.1989 10.447C12.1989 10.3285 12.1518 10.2148 12.068 10.131C11.9842 10.0472 11.8705 10.0001 11.752 10.0001ZM8.17702 6.59539H11.752C11.8705 6.59539 11.9842 6.64247 12.068 6.72627C12.1518 6.81008 12.1989 6.92374 12.1989 7.04226C12.1989 7.16078 12.1518 7.27445 12.068 7.35825C11.9842 7.44206 11.8705 7.48914 11.752 7.48914H8.17702C8.0585 7.48914 7.94484 7.44206 7.86103 7.35825C7.77723 7.27445 7.73015 7.16078 7.73015 7.04226C7.73015 6.92374 7.77723 6.81008 7.86103 6.72627C7.94484 6.64247 8.0585 6.59539 8.17702 6.59539Z" fill="white"/>
<path d="M15.3625 13.5751H15.0625V13.8751H15.3625V13.5751ZM14.9698 3.24276L15.182 3.03063L15.182 3.03063L14.9698 3.24276ZM3.24267 3.24276L3.03053 3.03063L3.03053 3.03063L3.24267 3.24276ZM2.98089 7.18796L3.19302 6.97583L3.19302 6.97583L2.98089 7.18796ZM4.6375 7.31884H4.9375V7.01884H4.6375V7.31884ZM5.03016 16.7574L4.81803 16.9696L4.81803 16.9696L5.03016 16.7574ZM16.7573 16.7574L16.9695 16.9696L16.9695 16.9696L16.7573 16.7574ZM4.50662 3.87473L4.29449 4.08687L4.29449 4.08687L4.50662 3.87473ZM4.6375 6.42509V6.72509H4.9375V6.42509H4.6375ZM3.74376 6.42509H3.44376V6.72509H3.74376V6.42509ZM6.425 15.8095L6.725 15.8136V15.8095H6.425ZM6.28647 16.1267L6.0795 15.9096L6.074 15.9148L6.06877 15.9203L6.28647 16.1267ZM5.97813 16.2563L5.98301 15.9563H5.97813V16.2563ZM5.66214 16.1255L5.45001 16.3376L5.45001 16.3376L5.66214 16.1255ZM5.53125 4.19072L5.83126 4.19072L5.83124 4.18834L5.53125 4.19072ZM5.45082 3.74385V3.44385H5.02274L5.16883 3.84623L5.45082 3.74385ZM14.3379 3.87473L14.1257 4.08687L14.1257 4.08687L14.3379 3.87473ZM14.4687 13.5751V13.8751H14.7687V13.5751H14.4687ZM6.55589 13.706L6.34376 13.4938L6.34376 13.4938L6.55589 13.706ZM16.219 15.9821L16.4939 16.1021L16.4939 16.1021L16.219 15.9821ZM16.2562 15.8095L16.5562 15.8136V15.8095H16.2562ZM16.1177 16.1267L15.9107 15.9096L15.9052 15.9148L15.9 15.9203L16.1177 16.1267ZM15.9772 16.2239L16.0934 16.5005L16.0934 16.5005L15.9772 16.2239ZM15.8094 16.2563L15.8143 15.9563H15.8094V16.2563ZM7.24278 16.2563L6.95978 16.1568L6.81923 16.5563H7.24278V16.2563ZM7.31875 15.8095L7.01875 15.8095L7.01875 15.8099L7.31875 15.8095ZM7.31875 14.4688V14.1688H7.01875V14.4688H7.31875ZM16.2562 14.4688H16.5562V14.1688H16.2562V14.4688ZM7.86103 10.131L7.6489 9.9189L7.6489 9.9189L7.86103 10.131ZM7.86103 10.763L7.6489 10.9751L7.6489 10.9751L7.86103 10.763ZM12.068 10.763L11.8559 10.5509L11.8559 10.5509L12.068 10.763ZM12.068 10.131L11.8559 10.3432L11.8559 10.3432L12.068 10.131ZM12.068 6.72627L11.8559 6.93841L11.8559 6.93841L12.068 6.72627ZM12.068 7.35825L11.8559 7.14612L11.8559 7.14612L12.068 7.35825ZM7.86103 7.35825L7.6489 7.57038L7.6489 7.57038L7.86103 7.35825ZM7.86103 6.72627L8.07317 6.93841L8.07317 6.93841L7.86103 6.72627ZM15.3625 13.8751H16.7031V13.2751H15.3625V13.8751ZM15.0625 4.19072V13.5751H15.6625V4.19072H15.0625ZM14.7577 3.45489C14.9529 3.65004 15.0625 3.91473 15.0625 4.19072H15.6625C15.6625 3.7556 15.4896 3.3383 15.182 3.03063L14.7577 3.45489ZM14.0219 3.1501C14.2979 3.1501 14.5625 3.25973 14.7577 3.45489L15.182 3.03063C14.8743 2.72295 14.457 2.5501 14.0219 2.5501V3.1501ZM4.19063 3.1501H14.0219V2.5501H4.19063V3.1501ZM3.4548 3.45489C3.64995 3.25973 3.91464 3.1501 4.19063 3.1501V2.5501C3.75551 2.5501 3.33821 2.72295 3.03053 3.03063L3.4548 3.45489ZM3.15001 4.19072C3.15001 3.91473 3.25964 3.65004 3.4548 3.45489L3.03053 3.03063C2.72286 3.3383 2.55001 3.7556 2.55001 4.19072H3.15001ZM3.15001 6.87197V4.19072H2.55001V6.87197H3.15001ZM3.19302 6.97583C3.16548 6.94828 3.15001 6.91092 3.15001 6.87197H2.55001C2.55001 7.07005 2.62869 7.26002 2.76876 7.40009L3.19302 6.97583ZM3.29688 7.01884C3.25793 7.01884 3.22057 7.00337 3.19302 6.97583L2.76876 7.40009C2.90883 7.54016 3.0988 7.61884 3.29688 7.61884V7.01884ZM4.6375 7.01884H3.29688V7.61884H4.6375V7.01884ZM4.9375 15.8095V7.31884H4.3375V15.8095H4.9375ZM5.2423 16.5453C5.04714 16.3501 4.9375 16.0855 4.9375 15.8095H4.3375C4.3375 16.2446 4.51036 16.6619 4.81803 16.9696L5.2423 16.5453ZM5.97813 16.8501C5.70214 16.8501 5.43745 16.7404 5.2423 16.5453L4.81803 16.9696C5.12571 17.2772 5.54301 17.4501 5.97813 17.4501V16.8501ZM15.8094 16.8501H5.97813V17.4501H15.8094V16.8501ZM16.5452 16.5453C16.35 16.7404 16.0854 16.8501 15.8094 16.8501V17.4501C16.2445 17.4501 16.6618 17.2772 16.9695 16.9696L16.5452 16.5453ZM16.85 15.8095C16.85 16.0855 16.7404 16.3501 16.5452 16.5453L16.9695 16.9696C17.2771 16.6619 17.45 16.2446 17.45 15.8095H16.85ZM16.85 14.022V15.8095H17.45V14.022H16.85ZM16.807 13.9181C16.8345 13.9457 16.85 13.983 16.85 14.022H17.45C17.45 13.8239 17.3713 13.6339 17.2312 13.4938L16.807 13.9181ZM16.7031 13.8751C16.7421 13.8751 16.7794 13.8906 16.807 13.9181L17.2312 13.4938C17.0912 13.3538 16.9012 13.2751 16.7031 13.2751V13.8751ZM3.66251 3.6626C3.52244 3.80267 3.44376 3.99264 3.44376 4.19072H4.04376C4.04376 4.15177 4.05923 4.11441 4.08677 4.08687L3.66251 3.6626ZM4.19063 3.44385C3.99255 3.44385 3.80258 3.52254 3.66251 3.6626L4.08677 4.08687C4.11432 4.05932 4.15168 4.04385 4.19063 4.04385V3.44385ZM4.71875 3.6626C4.57868 3.52254 4.38871 3.44385 4.19063 3.44385V4.04385C4.22958 4.04385 4.26694 4.05932 4.29449 4.08687L4.71875 3.6626ZM4.9375 4.19072C4.9375 3.99264 4.85882 3.80267 4.71875 3.6626L4.29449 4.08687C4.32203 4.11441 4.3375 4.15177 4.3375 4.19072H4.9375ZM4.9375 6.42509V4.19072H4.3375V6.42509H4.9375ZM3.74376 6.72509H4.6375V6.12509H3.74376V6.72509ZM3.44376 4.19072V6.42509H4.04376V4.19072H3.44376ZM6.725 15.8095V14.022H6.125V15.8095H6.725ZM6.66265 16.1021C6.7024 16.011 6.72359 15.913 6.72497 15.8136L6.12503 15.8053C6.12476 15.8248 6.12059 15.8441 6.11278 15.862L6.66265 16.1021ZM6.49344 16.3439C6.56537 16.2754 6.62289 16.1932 6.66265 16.1021L6.11278 15.862C6.10496 15.8799 6.09365 15.8961 6.0795 15.9096L6.49344 16.3439ZM6.26215 16.5005C6.35355 16.4621 6.43596 16.4051 6.50417 16.3332L6.06877 15.9203C6.05775 15.932 6.04444 15.9412 6.02968 15.9474L6.26215 16.5005ZM5.97325 16.5563C6.07238 16.5579 6.17076 16.5389 6.26215 16.5005L6.02968 15.9474C6.01491 15.9536 5.99902 15.9566 5.98301 15.9564L5.97325 16.5563ZM5.45001 16.3376C5.59008 16.4776 5.78005 16.5563 5.97813 16.5563V15.9563C5.93917 15.9563 5.90182 15.9409 5.87427 15.9133L5.45001 16.3376ZM5.23125 15.8095C5.23125 16.0075 5.30994 16.1975 5.45001 16.3376L5.87427 15.9133C5.84673 15.8858 5.83125 15.8484 5.83125 15.8095H5.23125ZM5.23125 4.19072V15.8095H5.83125V4.19072H5.23125ZM5.16883 3.84623C5.20921 3.95746 5.23033 4.07477 5.23126 4.1931L5.83124 4.18834C5.82977 4.00178 5.79648 3.81684 5.73281 3.64147L5.16883 3.84623ZM14.0219 3.44385H5.45082V4.04385H14.0219V3.44385ZM14.55 3.6626C14.4099 3.52253 14.22 3.44385 14.0219 3.44385V4.04385C14.0608 4.04385 14.0982 4.05932 14.1257 4.08687L14.55 3.6626ZM14.7687 4.19072C14.7687 3.99264 14.6901 3.80267 14.55 3.6626L14.1257 4.08687C14.1533 4.11441 14.1687 4.15177 14.1687 4.19072H14.7687ZM14.7687 13.5751V4.19072H14.1687V13.5751H14.7687ZM6.87188 13.8751H14.4687V13.2751H6.87188V13.8751ZM6.76802 13.9181C6.79557 13.8906 6.83292 13.8751 6.87188 13.8751V13.2751C6.67379 13.2751 6.48382 13.3538 6.34376 13.4938L6.76802 13.9181ZM6.725 14.022C6.725 13.983 6.74048 13.9457 6.76802 13.9181L6.34376 13.4938C6.20369 13.6339 6.125 13.8239 6.125 14.022H6.725ZM16.4939 16.1021C16.5336 16.011 16.5548 15.913 16.5562 15.8136L15.9563 15.8053C15.956 15.8248 15.9518 15.8441 15.944 15.862L16.4939 16.1021ZM16.3247 16.3439C16.3966 16.2754 16.4541 16.1932 16.4939 16.1021L15.944 15.862C15.9362 15.8799 15.9249 15.8961 15.9107 15.9096L16.3247 16.3439ZM16.0934 16.5005C16.1848 16.4621 16.2672 16.4051 16.3354 16.3332L15.9 15.9203C15.889 15.932 15.8757 15.9412 15.8609 15.9474L16.0934 16.5005ZM15.8045 16.5563C15.9036 16.5579 16.002 16.5389 16.0934 16.5005L15.8609 15.9474C15.8462 15.9536 15.8303 15.9566 15.8142 15.9564L15.8045 16.5563ZM7.24278 16.5563H15.8094V15.9563H7.24278V16.5563ZM7.01875 15.8099C7.01893 15.928 6.99899 16.0453 6.95978 16.1568L7.52578 16.3559C7.58759 16.1802 7.61903 15.9953 7.61875 15.809L7.01875 15.8099ZM7.01875 14.4688V15.8095H7.61875V14.4688H7.01875ZM16.2562 14.1688H7.31875V14.7688H16.2562V14.1688ZM16.5562 15.8095V14.4688H15.9562V15.8095H16.5562ZM8.17702 10.3001H11.752V9.70015H8.17702V10.3001ZM8.07317 10.3432C8.10071 10.3156 8.13807 10.3001 8.17702 10.3001V9.70015C7.97894 9.70015 7.78897 9.77883 7.6489 9.9189L8.07317 10.3432ZM8.03015 10.447C8.03015 10.4081 8.04562 10.3707 8.07317 10.3432L7.6489 9.9189C7.50884 10.059 7.43015 10.2489 7.43015 10.447H8.03015ZM8.07317 10.5509C8.04562 10.5233 8.03015 10.486 8.03015 10.447H7.43015C7.43015 10.6451 7.50884 10.8351 7.6489 10.9751L8.07317 10.5509ZM8.17702 10.5939C8.13807 10.5939 8.10071 10.5784 8.07317 10.5509L7.6489 10.9751C7.78897 11.1152 7.97894 11.1939 8.17702 11.1939V10.5939ZM11.752 10.5939H8.17702V11.1939H11.752V10.5939ZM11.8559 10.5509C11.8283 10.5784 11.791 10.5939 11.752 10.5939V11.1939C11.9501 11.1939 12.1401 11.1152 12.2801 10.9751L11.8559 10.5509ZM11.8989 10.447C11.8989 10.486 11.8834 10.5233 11.8559 10.5509L12.2801 10.9751C12.4202 10.8351 12.4989 10.6451 12.4989 10.447H11.8989ZM11.8559 10.3432C11.8834 10.3707 11.8989 10.4081 11.8989 10.447H12.4989C12.4989 10.2489 12.4202 10.059 12.2801 9.9189L11.8559 10.3432ZM11.752 10.3001C11.791 10.3001 11.8283 10.3156 11.8559 10.3432L12.2801 9.9189C12.1401 9.77883 11.9501 9.70015 11.752 9.70015V10.3001ZM11.752 6.29539H8.17702V6.89539H11.752V6.29539ZM12.2801 6.51414C12.1401 6.37408 11.9501 6.29539 11.752 6.29539V6.89539C11.791 6.89539 11.8283 6.91086 11.8559 6.93841L12.2801 6.51414ZM12.4989 7.04226C12.4989 6.84418 12.4202 6.65421 12.2801 6.51414L11.8559 6.93841C11.8834 6.96595 11.8989 7.00331 11.8989 7.04226H12.4989ZM12.2801 7.57038C12.4202 7.43032 12.4989 7.24034 12.4989 7.04226H11.8989C11.8989 7.08122 11.8834 7.11858 11.8559 7.14612L12.2801 7.57038ZM11.752 7.78914C11.9501 7.78914 12.1401 7.71045 12.2801 7.57038L11.8559 7.14612C11.8283 7.17366 11.791 7.18914 11.752 7.18914V7.78914ZM8.17702 7.78914H11.752V7.18914H8.17702V7.78914ZM7.6489 7.57038C7.78897 7.71045 7.97894 7.78914 8.17702 7.78914V7.18914C8.13807 7.18914 8.10071 7.17366 8.07317 7.14612L7.6489 7.57038ZM7.43015 7.04226C7.43015 7.24035 7.50884 7.43032 7.6489 7.57038L8.07317 7.14612C8.04562 7.11857 8.03015 7.08122 8.03015 7.04226H7.43015ZM7.6489 6.51414C7.50884 6.65421 7.43015 6.84418 7.43015 7.04226H8.03015C8.03015 7.00331 8.04562 6.96595 8.07317 6.93841L7.6489 6.51414ZM8.17702 6.29539C7.97894 6.29539 7.78897 6.37408 7.6489 6.51414L8.07317 6.93841C8.10071 6.91086 8.13807 6.89539 8.17702 6.89539V6.29539Z" fill="white"/>
</svg>
