<svg width="20" height="20" viewBox="0 0 20 20" fill="none" xmlns="http://www.w3.org/2000/svg">
<path fill-rule="evenodd" clip-rule="evenodd" d="M3.99998 3.90001C3.39246 3.90001 2.89998 4.39249 2.89998 5.00001V15.0971L3.78196 14.3733C4.16619 14.0579 4.73329 14.1138 5.04862 14.498C5.36395 14.8822 5.3081 15.4493 4.92388 15.7647L2.57093 17.6957C2.30193 17.9165 1.92976 17.9624 1.61518 17.8136C1.30059 17.6648 1.09998 17.348 1.09998 17V5.00001C1.09998 3.39838 2.39835 2.10001 3.99998 2.10001H16C17.6016 2.10001 18.9 3.39838 18.9 5.00001V12.5862C18.9 14.1878 17.6016 15.4862 16 15.4862H8.17645C7.67939 15.4862 7.27645 15.0833 7.27645 14.5862C7.27645 14.0892 7.67939 13.6862 8.17645 13.6862H16C16.6075 13.6862 17.1 13.1937 17.1 12.5862V5.00001C17.1 4.39249 16.6075 3.90001 16 3.90001H3.99998Z" fill="#DB2778"/>
<circle cx="6" cy="9" r="1" fill="#DB2778"/>
<circle cx="10" cy="9" r="1" fill="#DB2778"/>
<circle cx="14" cy="9" r="1" fill="#DB2778"/>
</svg>
