<svg width="20" height="20" viewBox="0 0 20 20" fill="none" xmlns="http://www.w3.org/2000/svg">
<path d="M14.5 5.66671V5.00004C14.5 4.55801 14.3244 4.13409 14.0118 3.82153C13.6993 3.50897 13.2754 3.33337 12.8333 3.33337H5.99999C5.55797 3.33337 5.13404 3.50897 4.82148 3.82153C4.50892 4.13409 4.33333 4.55801 4.33333 5.00004V15C4.33333 15.4421 4.50892 15.866 4.82148 16.1786C5.13404 16.4911 5.55797 16.6667 5.99999 16.6667H12.8333C13.2754 16.6667 13.6993 16.4911 14.0118 16.1786C14.3244 15.866 14.5 15.4421 14.5 15V14.3334M10.3333 10H18.5M18.5 10L16.5357 7.5M18.5 10L16.5357 12.5" stroke="white" stroke-width="1.8" stroke-linecap="round" stroke-linejoin="round"/>
</svg>
