<svg width="20" height="20" viewBox="0 0 20 20" fill="none" xmlns="http://www.w3.org/2000/svg">
<path d="M11.2351 18.5C11.0493 18.5018 10.8666 18.4517 10.7076 18.3555C10.5487 18.2592 10.4197 18.1205 10.3351 17.955L8.3351 14.17C8.2771 14.0531 8.26715 13.918 8.3074 13.7938C8.34765 13.6696 8.4349 13.566 8.55049 13.5053C8.66609 13.4446 8.80085 13.4315 8.92598 13.4688C9.05111 13.5061 9.15667 13.5909 9.2201 13.705L11.2201 17.49L16.0001 4.53004L3.0001 9.24504L7.9001 11.875L12.0601 7.71504C12.1543 7.62089 12.282 7.56799 12.4151 7.56799C12.5483 7.56799 12.676 7.62089 12.7701 7.71504C12.8643 7.80919 12.9171 7.93689 12.9171 8.07004C12.9171 8.20319 12.8643 8.33089 12.7701 8.42504L8.3451 12.845C8.26988 12.9204 8.17257 12.9697 8.06735 12.9859C7.96213 13.0021 7.85449 12.9843 7.7601 12.935L2.5451 10.165C2.36256 10.0796 2.2101 9.94101 2.1077 9.76743C2.00529 9.59384 1.95773 9.39336 1.97125 9.19227C1.98476 8.99119 2.05872 8.79887 2.18343 8.64055C2.30814 8.48223 2.47777 8.36528 2.6701 8.30504L15.6251 3.56504C15.8083 3.48776 16.0105 3.46687 16.2056 3.50505C16.4008 3.54322 16.5802 3.63872 16.7208 3.77934C16.8614 3.91997 16.9569 4.09933 16.9951 4.2945C17.0333 4.48967 17.0124 4.6918 16.9351 4.87504L12.1951 17.83C12.1299 18.0174 12.0105 18.1811 11.852 18.3004C11.6936 18.4198 11.5032 18.4892 11.3051 18.5H11.2351Z" fill="white"/>
</svg>
