<svg width="36" height="36" viewBox="0 0 36 36" fill="none" xmlns="http://www.w3.org/2000/svg">
<path fill-rule="evenodd" clip-rule="evenodd" d="M26.6969 28.3008H23.7961C23.4465 28.3008 23.1111 28.1619 22.8639 27.9146C22.6167 27.6674 22.4778 27.3321 22.4778 26.9824C22.4778 26.6328 22.6167 26.2974 22.8639 26.0502C23.1111 25.803 23.4465 25.6641 23.7961 25.6641H26.6969C28.3188 25.6447 29.8676 24.9868 31.0077 23.8331C32.1477 22.6793 32.7871 21.1227 32.7871 19.5007C32.7871 17.8787 32.1477 16.3221 31.0077 15.1684C29.8676 14.0146 28.3188 13.3568 26.6969 13.3374C26.5308 13.3374 26.3541 13.3453 26.1573 13.3629C25.9081 13.3841 25.6581 13.3341 25.4364 13.2186C25.2146 13.1032 25.0303 12.927 24.9048 12.7107C24.0158 11.1773 22.6762 9.95486 21.0679 9.20963C19.4597 8.4644 17.661 8.23255 15.9164 8.5456C14.1718 8.85865 12.5659 9.70141 11.3171 10.9593C10.0683 12.2172 9.23723 13.8291 8.93685 15.576C8.88314 15.8912 8.71669 16.1762 8.46849 16.3778C8.2203 16.5794 7.90728 16.684 7.58773 16.672H7.49457C6.89498 16.6573 6.29851 16.7627 5.74026 16.9819C5.18201 17.2012 4.67325 17.5299 4.24393 17.9487C3.8146 18.3675 3.47339 18.8679 3.24035 19.4206C3.00732 19.9732 2.88718 20.5669 2.88701 21.1667C2.88683 21.7664 3.00662 22.3602 3.23933 22.913C3.47204 23.4657 3.81296 23.9664 4.24204 24.3854C4.67112 24.8045 5.17968 25.1335 5.73781 25.3531C6.29593 25.5727 6.89234 25.6784 7.49193 25.6641H12.0582C12.4079 25.6641 12.7432 25.803 12.9905 26.0502C13.2377 26.2974 13.3766 26.6328 13.3766 26.9824C13.3766 27.3321 13.2377 27.6674 12.9905 27.9146C12.7432 28.1619 12.4079 28.3008 12.0582 28.3008H7.49193C5.68131 28.2991 3.93906 27.609 2.61828 26.3705C1.2975 25.132 0.496977 23.4377 0.378954 21.6309C0.260932 19.8241 0.834235 18.0401 1.98268 16.6403C3.13112 15.2405 4.76879 14.3296 6.56381 14.0924C7.12724 12.013 8.27516 10.1387 9.87145 8.69185C11.4677 7.24501 13.4454 6.28625 15.5701 5.92926C17.6947 5.57227 19.8771 5.83202 21.8586 6.67772C23.8401 7.52342 25.5375 8.91958 26.7496 10.7007C29.069 10.7297 31.283 11.6733 32.9104 13.3261C34.5377 14.9789 35.4468 17.2074 35.4398 19.5268C35.4329 21.8463 34.5105 24.0693 32.8733 25.7123C31.236 27.3554 29.0164 28.2856 26.6969 28.3008ZM22.1626 23.3895C21.9895 23.3896 21.818 23.3555 21.6581 23.2891C21.4983 23.2228 21.3531 23.1254 21.2309 23.0027L19.2466 21.0189V32.3165C19.2466 32.6661 19.1077 33.0015 18.8604 33.2487C18.6132 33.496 18.2779 33.6349 17.9282 33.6349C17.5786 33.6349 17.2432 33.496 16.996 33.2487C16.7488 33.0015 16.6099 32.6661 16.6099 32.3165V21.0188L14.626 23.0027C14.3751 23.2307 14.0461 23.3533 13.7072 23.3451C13.3683 23.3368 13.0456 23.1984 12.8062 22.9585C12.5667 22.7185 12.4288 22.3956 12.4212 22.0567C12.4136 21.7178 12.5368 21.389 12.7653 21.1386L16.94 16.9639C16.958 16.9435 16.9766 16.9236 16.996 16.9043C17.2311 16.6692 17.5459 16.532 17.877 16.5192C17.8952 16.5184 17.9136 16.518 17.932 16.518C18.2815 16.518 18.6168 16.6568 18.864 16.904L23.0986 21.1386C23.2831 21.323 23.4088 21.5579 23.4597 21.8137C23.5106 22.0695 23.4845 22.3347 23.3847 22.5757C23.2848 22.8167 23.1158 23.0226 22.8988 23.1675C22.6819 23.3123 22.4269 23.3896 22.1661 23.3895H22.1626Z" fill="white"/>
</svg>
