<svg width="20" height="20" viewBox="0 0 20 20" fill="none" xmlns="http://www.w3.org/2000/svg">
<path d="M2.50001 7.73546C2.50001 12.6204 8.26928 17 9.99953 17C11.7298 17 17.5 12.6204 17.5 7.73546C17.5003 7.15953 17.4197 6.58636 17.2605 6.0324C17.0032 5.15862 16.4666 4.39085 15.7311 3.84415C14.9956 3.29746 14.1008 3.00128 13.1809 3.00001C12.5728 2.99896 11.972 3.13139 11.4219 3.38775C10.8718 3.64411 10.386 4.01801 9.99953 4.48251C9.61309 4.01801 9.12731 3.64411 8.57718 3.38775C8.02705 3.13139 7.42629 2.99896 6.81819 3.00001C6.60973 2.99995 6.40157 3.01533 6.19543 3.04602C5.94802 3.083 5.72559 3.2157 5.57708 3.41492C5.42857 3.61415 5.36613 3.86358 5.40351 4.10834C5.4409 4.3531 5.57503 4.57315 5.77641 4.72007C5.87612 4.79282 5.98934 4.84543 6.10961 4.87489C6.22987 4.90435 6.35482 4.91009 6.47733 4.89178C7.0548 4.83122 7.6355 4.97244 8.11877 5.29097C8.60204 5.6095 8.95744 6.08526 9.12337 6.6358C9.19349 6.80896 9.31442 6.95737 9.47059 7.06191C9.62675 7.16645 9.81098 7.22232 9.99953 7.22232C10.1881 7.22232 10.3723 7.16645 10.5285 7.06191C10.6846 6.95737 10.8056 6.80896 10.8757 6.6358C11.0264 6.14044 11.3293 5.70385 11.7425 5.38677C12.1556 5.06969 12.6584 4.8879 13.1809 4.86667C13.6912 4.86676 14.1878 5.03044 14.5962 5.33319C15.0047 5.63595 15.3029 6.06147 15.4463 6.54602C15.5575 6.93292 15.6136 7.33324 15.6131 7.73546C15.6131 11.5709 10.8813 15.0203 10.0235 15.1343C9.1178 15.0198 4.38687 11.5695 4.38687 7.73546C4.38615 7.3339 4.44197 6.9342 4.55273 6.54788C4.58691 6.4301 4.59731 6.30682 4.58333 6.18506C4.56935 6.0633 4.53126 5.94546 4.47125 5.83827C4.41123 5.73107 4.33047 5.63662 4.23355 5.56031C4.13664 5.48399 4.02549 5.42731 3.90643 5.39349C3.78738 5.35968 3.66275 5.34939 3.53968 5.36322C3.41661 5.37705 3.29749 5.41473 3.18914 5.4741C3.08078 5.53347 2.98531 5.61337 2.90817 5.70925C2.83103 5.80512 2.77373 5.91509 2.73955 6.03287C2.57953 6.58651 2.4989 7.15963 2.50001 7.73546Z" fill="white"/>
</svg>
