<svg width="24" height="24" viewBox="0 0 24 24" fill="none" xmlns="http://www.w3.org/2000/svg">
<path d="M21.171 20.6101H3.02899C1.97262 20.6101 1.09998 19.7374 1.09998 18.681V5.72907C1.09998 4.6727 1.97262 3.80005 3.02899 3.80005H21.171C22.2273 3.80005 23.1 4.6727 23.1 5.72907V18.681C23.1 19.7374 22.2273 20.6101 21.171 20.6101ZM2.98307 5.04013C2.61564 5.04013 2.34005 5.3157 2.34005 5.68313V18.6351C2.34005 19.0026 2.61564 19.2781 2.98307 19.2781H21.125C21.4925 19.2781 21.768 19.0026 21.768 18.6351V5.68313C21.768 5.3157 21.4925 5.04013 21.125 5.04013H2.98307Z" fill="white"/>
<path d="M15.338 11.4702C13.9142 11.4702 12.8119 10.3219 12.8119 8.94407C12.8119 7.56619 13.9601 6.41797 15.338 6.41797C16.7159 6.41797 17.8641 7.56619 17.8641 8.94407C17.8641 10.3219 16.7159 11.4702 15.338 11.4702ZM15.338 7.56619C14.6031 7.56619 14.006 8.16327 14.006 8.89813C14.006 9.633 14.6031 10.2301 15.338 10.2301C16.0729 10.2301 16.6699 9.633 16.6699 8.89813C16.6699 8.16327 16.0729 7.56619 15.338 7.56619Z" fill="white"/>
<path d="M18.7827 20.3804L8.17304 10.4138L2.11041 16.0172L1.28369 15.1445L8.17304 8.76038L19.6094 19.5078L18.7827 20.3804Z" fill="white"/>
<path d="M22.0896 17.0736L18.553 14.226L15.6136 16.6603L14.8328 15.6957L18.553 12.6644L22.8244 16.155L22.0896 17.0736Z" fill="white"/>
</svg>
