<svg width="20" height="20" viewBox="0 0 20 20" fill="none" xmlns="http://www.w3.org/2000/svg">
<path fill-rule="evenodd" clip-rule="evenodd" d="M0.993696 18.0718C1.07438 18.1074 1.16169 18.1255 1.24989 18.125L1.32489 18.1188L5.69989 17.6375C5.83972 17.6204 5.96966 17.5565 6.06864 17.4563L14.7767 8.7482C14.7958 8.73323 14.814 8.71715 14.8313 8.7C14.8497 8.68171 14.8669 8.66234 14.8829 8.642L16.2874 7.2375C16.4735 7.05174 16.6212 6.83108 16.722 6.58817C16.8227 6.34526 16.8746 6.08486 16.8746 5.82188C16.8746 5.5589 16.8227 5.2985 16.722 5.05559C16.6212 4.81268 16.4735 4.59202 16.2874 4.40625L14.3436 2.4625C14.1579 2.27636 13.9372 2.12869 13.6943 2.02793C13.4514 1.92717 13.191 1.87531 12.928 1.87531C12.665 1.87531 12.4046 1.92717 12.1617 2.02793C11.9188 2.12869 11.6982 2.27636 11.5124 2.4625L10.1051 3.86975C10.0859 3.88496 10.0675 3.90131 10.05 3.91875C10.0326 3.93618 10.0162 3.95459 10.001 3.97387L1.28739 12.6875C1.18714 12.7865 1.12327 12.9164 1.10614 13.0563L0.624888 17.4313C0.615185 17.5189 0.624144 17.6076 0.651179 17.6916C0.678213 17.7755 0.72271 17.8528 0.781743 17.9184C0.840777 17.9839 0.91301 18.0362 0.993696 18.0718ZM10.4899 5.24752L2.33114 13.4063L1.95614 16.7938L5.34364 16.4188L13.4975 8.26486L10.4899 5.24752ZM14.3906 7.37181L15.4061 6.35625C15.4761 6.28658 15.5315 6.20378 15.5694 6.11262C15.6072 6.02145 15.6267 5.92371 15.6267 5.825C15.6267 5.72629 15.6072 5.62855 15.5694 5.53739C15.5315 5.44623 15.4761 5.36343 15.4061 5.29375L13.4561 3.34375C13.3865 3.27383 13.3037 3.21836 13.2125 3.1805C13.1213 3.14265 13.0236 3.12316 12.9249 3.12316C12.8262 3.12316 12.7284 3.14265 12.6373 3.1805C12.5461 3.21836 12.4633 3.27383 12.3936 3.34375L11.3781 4.35931L14.3906 7.37181ZM10.0533 7.81479L5.1875 12.6806L6.07138 13.5645L10.9372 8.69868L10.0533 7.81479ZM8.75 18.125H18.75C18.9158 18.125 19.0747 18.0592 19.1919 17.9419C19.3092 17.8247 19.375 17.6658 19.375 17.5C19.375 17.3342 19.3092 17.1753 19.1919 17.0581C19.0747 16.9408 18.9158 16.875 18.75 16.875H8.75C8.58424 16.875 8.42527 16.9408 8.30806 17.0581C8.19085 17.1753 8.125 17.3342 8.125 17.5C8.125 17.6658 8.19085 17.8247 8.30806 17.9419C8.42527 18.0592 8.58424 18.125 8.75 18.125Z" fill="white"/>
</svg>
