<svg width="20" height="20" viewBox="0 0 20 20" fill="none" xmlns="http://www.w3.org/2000/svg">
<path d="M1.00001 6.39721C1.00001 10.9333 6.38466 15 7.99956 15C9.61447 15 15 10.9333 15 6.39721C15.0003 5.86242 14.9251 5.33019 14.7764 4.8158C14.5363 4.00443 14.0355 3.2915 13.349 2.78385C12.6626 2.27621 11.8274 2.00119 10.9688 2.00001C10.4013 1.99904 9.84055 2.12201 9.32709 2.36006C8.81364 2.5981 8.36024 2.9453 7.99956 3.37662C7.63889 2.9453 7.18549 2.5981 6.67203 2.36006C6.15858 2.12201 5.59787 1.99904 5.03031 2.00001C4.83575 1.99995 4.64146 2.01423 4.44907 2.04273C4.21815 2.07707 4.01055 2.20029 3.87194 2.38529C3.73333 2.57028 3.67506 2.80189 3.70995 3.02917C3.74484 3.25645 3.87003 3.46078 4.05798 3.59721C4.15105 3.66476 4.25672 3.71361 4.36897 3.74097C4.48121 3.76833 4.59783 3.77365 4.71217 3.75665C5.25115 3.70041 5.79313 3.83155 6.24419 4.12733C6.69524 4.42311 7.02695 4.86489 7.18181 5.3761C7.24725 5.53689 7.36013 5.6747 7.50588 5.77177C7.65163 5.86884 7.82358 5.92072 7.99956 5.92072C8.17555 5.92072 8.3475 5.86884 8.49325 5.77177C8.639 5.6747 8.75187 5.53689 8.81732 5.3761C8.95793 4.91612 9.24072 4.51072 9.62632 4.21629C10.0119 3.92186 10.4812 3.75305 10.9688 3.73334C11.4451 3.73342 11.9086 3.88541 12.2898 4.16654C12.671 4.44766 12.9494 4.8428 13.0833 5.29273C13.187 5.65199 13.2394 6.02372 13.2389 6.39721C13.2389 9.95869 8.82251 13.1617 8.02193 13.2675C7.17662 13.1613 2.76108 9.95739 2.76108 6.39721C2.7604 6.02434 2.8125 5.65319 2.91588 5.29446C2.94778 5.1851 2.95749 5.07061 2.94444 4.95755C2.93139 4.8445 2.89585 4.73507 2.83983 4.63553C2.78382 4.536 2.70844 4.44829 2.61798 4.37743C2.52753 4.30656 2.42379 4.25393 2.31267 4.22253C2.20155 4.19113 2.08524 4.18158 1.97037 4.19442C1.8555 4.20726 1.74433 4.24225 1.64319 4.29738C1.54206 4.35251 1.45295 4.42671 1.38096 4.51573C1.30896 4.60476 1.25548 4.70687 1.22358 4.81624C1.07423 5.33033 0.998972 5.86252 1.00001 6.39721Z" fill="white"/>
<path d="M9.37486 17.8767C10.058 18.4668 10.8818 18.8549 11.7597 19C12.9975 19 15.4748 17.0874 17.0593 14.9069C18.7852 12.5325 19.3757 10.1089 18.7675 7.89825C18.6102 7.32247 18.3355 6.78852 17.9618 6.33261C17.8054 6.14176 17.5822 6.02321 17.3415 6.00306C17.2223 5.99308 17.1024 6.00756 16.9886 6.04566C16.8748 6.08377 16.7694 6.14476 16.6783 6.22515C16.4943 6.3875 16.3801 6.61902 16.3607 6.86877C16.3511 6.99244 16.365 7.11686 16.4017 7.23493C16.4385 7.353 16.4972 7.46241 16.5747 7.55691C16.7801 7.80733 16.9305 8.10101 17.0158 8.41767C17.1826 9.24703 17.1768 10.1038 16.9989 10.9306C16.821 11.7575 16.4751 12.5354 15.9842 13.2125C14.9629 14.8943 13.5072 16.2452 11.7828 17.1114C11.2943 16.9436 10.8397 16.6838 10.4418 16.3452C10.2461 16.1993 10.0025 16.1399 9.76462 16.18C9.52671 16.2201 9.31383 16.3565 9.17263 16.5591C9.03143 16.7618 8.97343 17.0143 9.01134 17.2613C9.04925 17.5082 9.17997 17.7296 9.37486 17.8767Z" fill="white"/>
</svg>
