<svg width="20" height="20" viewBox="0 0 20 20" fill="none" xmlns="http://www.w3.org/2000/svg">
<path fill-rule="evenodd" clip-rule="evenodd" d="M7.5 2.70825C5.54399 2.70825 3.95833 4.29391 3.95833 6.24992C3.95833 8.20593 5.54399 9.79158 7.5 9.79158C9.456 9.79158 11.0417 8.20593 11.0417 6.24992C11.0417 4.29391 9.456 2.70825 7.5 2.70825ZM5.20833 6.24992C5.20833 4.98427 6.23435 3.95825 7.5 3.95825C8.76567 3.95825 9.79167 4.98427 9.79167 6.24992C9.79167 7.51557 8.76567 8.54158 7.5 8.54158C6.23435 8.54158 5.20833 7.51557 5.20833 6.24992Z" fill="white"/>
<path fill-rule="evenodd" clip-rule="evenodd" d="M9.59008 11.3673C8.20545 11.1463 6.79455 11.1463 5.40994 11.3673L5.26152 11.3909C3.31056 11.7023 1.875 13.3851 1.875 15.3608C1.875 16.4272 2.73945 17.2916 3.80581 17.2916H11.1942C12.2606 17.2916 13.125 16.4272 13.125 15.3608C13.125 13.3851 11.6894 11.7023 9.7385 11.3909L9.59008 11.3673ZM5.45853 12.6253L5.60694 12.6016C6.86104 12.4015 8.13896 12.4015 9.39308 12.6016L9.5415 12.6253C10.8858 12.8398 11.875 13.9994 11.875 15.3608C11.875 15.7368 11.5702 16.0416 11.1942 16.0416H3.80581C3.42981 16.0416 3.125 15.7368 3.125 15.3608C3.125 13.9994 4.11419 12.8398 5.45853 12.6253Z" fill="white"/>
<path d="M12.5 2.70825C12.1548 2.70825 11.875 2.98808 11.875 3.33325C11.875 3.67843 12.1548 3.95825 12.5 3.95825C13.7657 3.95825 14.7917 4.98427 14.7917 6.24992C14.7917 7.51557 13.7657 8.54158 12.5 8.54158C12.1548 8.54158 11.875 8.82142 11.875 9.16658C11.875 9.51175 12.1548 9.79158 12.5 9.79158C14.456 9.79158 16.0417 8.20593 16.0417 6.24992C16.0417 4.29391 14.456 2.70825 12.5 2.70825Z" fill="white"/>
<path d="M13.5343 11.3594C13.1892 11.3594 12.9093 11.6393 12.9093 11.9844C12.9093 12.3296 13.1892 12.6094 13.5343 12.6094H14.3411C14.4082 12.6094 14.4753 12.6148 14.5415 12.6253C15.8858 12.8398 16.875 13.9994 16.875 15.3608C16.875 15.7368 16.5702 16.0416 16.1942 16.0416H14.4916C14.1464 16.0416 13.8666 16.3214 13.8666 16.6666C13.8666 17.0118 14.1464 17.2916 14.4916 17.2916H16.1942C17.2606 17.2916 18.125 16.4272 18.125 15.3608C18.125 13.3851 16.6894 11.7023 14.7385 11.3909C14.6071 11.3699 14.4741 11.3594 14.3411 11.3594H13.5343Z" fill="white"/>
<path fill-rule="evenodd" clip-rule="evenodd" d="M7.5 2.70825C5.54399 2.70825 3.95833 4.29391 3.95833 6.24992C3.95833 8.20593 5.54399 9.79158 7.5 9.79158C9.456 9.79158 11.0417 8.20593 11.0417 6.24992C11.0417 4.29391 9.456 2.70825 7.5 2.70825ZM5.20833 6.24992C5.20833 4.98427 6.23435 3.95825 7.5 3.95825C8.76567 3.95825 9.79167 4.98427 9.79167 6.24992C9.79167 7.51557 8.76567 8.54158 7.5 8.54158C6.23435 8.54158 5.20833 7.51557 5.20833 6.24992Z" stroke="white" stroke-width="0.5"/>
<path fill-rule="evenodd" clip-rule="evenodd" d="M9.59008 11.3673C8.20545 11.1463 6.79455 11.1463 5.40994 11.3673L5.26152 11.3909C3.31056 11.7023 1.875 13.3851 1.875 15.3608C1.875 16.4272 2.73945 17.2916 3.80581 17.2916H11.1942C12.2606 17.2916 13.125 16.4272 13.125 15.3608C13.125 13.3851 11.6894 11.7023 9.7385 11.3909L9.59008 11.3673ZM5.45853 12.6253L5.60694 12.6016C6.86104 12.4015 8.13896 12.4015 9.39308 12.6016L9.5415 12.6253C10.8858 12.8398 11.875 13.9994 11.875 15.3608C11.875 15.7368 11.5702 16.0416 11.1942 16.0416H3.80581C3.42981 16.0416 3.125 15.7368 3.125 15.3608C3.125 13.9994 4.11419 12.8398 5.45853 12.6253Z" stroke="white" stroke-width="0.5"/>
<path d="M12.5 2.70825C12.1548 2.70825 11.875 2.98808 11.875 3.33325C11.875 3.67843 12.1548 3.95825 12.5 3.95825C13.7657 3.95825 14.7917 4.98427 14.7917 6.24992C14.7917 7.51557 13.7657 8.54158 12.5 8.54158C12.1548 8.54158 11.875 8.82142 11.875 9.16658C11.875 9.51175 12.1548 9.79158 12.5 9.79158C14.456 9.79158 16.0417 8.20593 16.0417 6.24992C16.0417 4.29391 14.456 2.70825 12.5 2.70825Z" stroke="white" stroke-width="0.5"/>
<path d="M13.5343 11.3594C13.1892 11.3594 12.9093 11.6393 12.9093 11.9844C12.9093 12.3296 13.1892 12.6094 13.5343 12.6094H14.3411C14.4082 12.6094 14.4753 12.6148 14.5415 12.6253C15.8858 12.8398 16.875 13.9994 16.875 15.3608C16.875 15.7368 16.5702 16.0416 16.1942 16.0416H14.4916C14.1464 16.0416 13.8666 16.3214 13.8666 16.6666C13.8666 17.0118 14.1464 17.2916 14.4916 17.2916H16.1942C17.2606 17.2916 18.125 16.4272 18.125 15.3608C18.125 13.3851 16.6894 11.7023 14.7385 11.3909C14.6071 11.3699 14.4741 11.3594 14.3411 11.3594H13.5343Z" stroke="white" stroke-width="0.5"/>
</svg>
