<svg width="20" height="20" viewBox="0 0 20 20" fill="none" xmlns="http://www.w3.org/2000/svg">
<path d="M9.9998 18.0721C8.84583 18.0712 7.04489 16.6707 6.5208 16.2414C6.43611 16.1721 6.36589 16.0868 6.31417 15.9904C6.26244 15.8939 6.23022 15.7883 6.21934 15.6794C6.20846 15.5705 6.21913 15.4605 6.25075 15.3557C6.28236 15.251 6.33431 15.1534 6.40361 15.0687C6.47292 14.9841 6.55823 14.9138 6.65467 14.8621C6.75111 14.8104 6.85679 14.7782 6.96569 14.7673C7.07458 14.7564 7.18455 14.7671 7.28932 14.7987C7.39409 14.8303 7.49161 14.8823 7.5763 14.9516C8.27076 15.6057 9.09866 16.1017 10.0031 16.4054C11.0354 16.3566 16.907 12.1077 16.907 7.29734C16.9076 6.79148 16.8374 6.28802 16.6986 5.80158C16.5125 5.16484 16.1251 4.60558 15.5943 4.20768C15.0635 3.80977 14.4181 3.59465 13.7547 3.59458C13.0815 3.61795 12.4324 3.85091 11.898 4.26094C11.3636 4.67096 10.9706 5.2376 10.7737 5.88178C10.7118 6.03637 10.6051 6.16889 10.4671 6.26223C10.3292 6.35557 10.1665 6.40545 10 6.40545C9.83348 6.40545 9.67077 6.35557 9.53287 6.26223C9.39496 6.16889 9.28818 6.03637 9.22629 5.88178C9.02938 5.23763 8.63632 4.67103 8.10193 4.26101C7.56754 3.85099 6.91848 3.61801 6.24533 3.59458C5.58198 3.5947 4.93653 3.80978 4.40571 4.2076C3.87489 4.60542 3.48729 5.16456 3.30099 5.80121C3.16256 6.28786 3.09257 6.79142 3.09307 7.29738C3.22768 9.30116 4.02092 11.2042 5.34933 12.7104C5.488 12.8824 5.55266 13.1025 5.52908 13.3222C5.5055 13.5419 5.39561 13.7432 5.22359 13.8819C5.05157 14.0206 4.83151 14.0852 4.61182 14.0616C4.39213 14.0381 4.1908 13.9282 4.05213 13.7562C2.48166 11.9559 1.55751 9.68274 1.42639 7.29738C1.42585 6.63658 1.51748 5.97893 1.69861 5.34344C1.9854 4.35914 2.58347 3.49429 3.40319 2.87852C4.2229 2.26275 5.2201 1.92922 6.24533 1.92792C6.98029 1.92912 7.70436 2.1057 8.35736 2.443C9.01036 2.78029 9.57344 3.26855 9.9998 3.86721C10.4262 3.26851 10.9894 2.78022 11.6424 2.44292C12.2955 2.10563 13.0197 1.92907 13.7547 1.92792C14.7798 1.92912 15.777 2.26257 16.5966 2.87828C17.4163 3.49399 18.0143 4.35879 18.301 5.34303C18.4825 5.97858 18.5743 6.6364 18.5736 7.29738C18.5736 12.9785 11.9778 18.0721 9.9998 18.0721Z" fill="#DB2778"/>
</svg>
