<svg width="20" height="20" viewBox="0 0 20 20" fill="none" xmlns="http://www.w3.org/2000/svg">
<path d="M15.1731 19.1666H4.88249C4.37076 19.1666 3.87999 18.9735 3.51814 18.6297C3.15629 18.2859 2.953 17.8195 2.953 17.3333V5.7222C2.953 5.56012 3.02076 5.40468 3.14138 5.29007C3.262 5.17547 3.42559 5.11108 3.59617 5.11108C3.76674 5.11108 3.93033 5.17547 4.05095 5.29007C4.17157 5.40468 4.23933 5.56012 4.23933 5.7222V17.3333C4.23933 17.4954 4.30709 17.6508 4.42771 17.7654C4.54832 17.88 4.71191 17.9444 4.88249 17.9444H15.1731C15.3437 17.9444 15.5073 17.88 15.6279 17.7654C15.7485 17.6508 15.8162 17.4954 15.8162 17.3333V5.7222C15.8162 5.56012 15.884 5.40468 16.0046 5.29007C16.1252 5.17547 16.2888 5.11108 16.4594 5.11108C16.63 5.11108 16.7936 5.17547 16.9142 5.29007C17.0348 5.40468 17.1026 5.56012 17.1026 5.7222V17.3333C17.1026 17.8195 16.8993 18.2859 16.5374 18.6297C16.1756 18.9735 15.6848 19.1666 15.1731 19.1666V19.1666Z" fill="white"/>
<path d="M17.7457 4.49993H2.30985C2.13927 4.49993 1.97568 4.43555 1.85506 4.32094C1.73445 4.20634 1.66669 4.0509 1.66669 3.88882C1.66669 3.72674 1.73445 3.57131 1.85506 3.4567C1.97568 3.34209 2.13927 3.27771 2.30985 3.27771H17.7457C17.9163 3.27771 18.0799 3.34209 18.2005 3.4567C18.3211 3.57131 18.3889 3.72674 18.3889 3.88882C18.3889 4.0509 18.3211 4.20634 18.2005 4.32094C18.0799 4.43555 17.9163 4.49993 17.7457 4.49993Z" fill="white"/>
<path d="M12.6004 4.50004C12.4298 4.50004 12.2662 4.43566 12.1456 4.32105C12.025 4.20644 11.9572 4.05101 11.9572 3.88893V2.0556H8.09828V3.88893C8.09828 4.05101 8.03051 4.20644 7.9099 4.32105C7.78928 4.43566 7.62569 4.50004 7.45511 4.50004C7.28454 4.50004 7.12095 4.43566 7.00033 4.32105C6.87971 4.20644 6.81195 4.05101 6.81195 3.88893V1.44449C6.81195 1.28241 6.87971 1.12697 7.00033 1.01236C7.12095 0.897759 7.28454 0.833374 7.45511 0.833374H12.6004C12.771 0.833374 12.9346 0.897759 13.0552 1.01236C13.1758 1.12697 13.2436 1.28241 13.2436 1.44449V3.88893C13.2436 4.05101 13.1758 4.20644 13.0552 4.32105C12.9346 4.43566 12.771 4.50004 12.6004 4.50004Z" fill="white"/>
<path d="M10.0278 16.111C9.85723 16.111 9.69364 16.0466 9.57302 15.932C9.45241 15.8174 9.38464 15.662 9.38464 15.4999V6.94436C9.38464 6.78229 9.45241 6.62685 9.57302 6.51224C9.69364 6.39764 9.85723 6.33325 10.0278 6.33325C10.1984 6.33325 10.362 6.39764 10.4826 6.51224C10.6032 6.62685 10.671 6.78229 10.671 6.94436V15.4999C10.671 15.662 10.6032 15.8174 10.4826 15.932C10.362 16.0466 10.1984 16.111 10.0278 16.111Z" fill="white"/>
<path d="M13.2436 14.889C13.073 14.889 12.9095 14.8246 12.7888 14.71C12.6682 14.5954 12.6005 14.44 12.6005 14.2779V8.16678C12.6005 8.0047 12.6682 7.84926 12.7888 7.73465C12.9095 7.62005 13.073 7.55566 13.2436 7.55566C13.4142 7.55566 13.5778 7.62005 13.6984 7.73465C13.819 7.84926 13.8868 8.0047 13.8868 8.16678V14.2779C13.8868 14.44 13.819 14.5954 13.6984 14.71C13.5778 14.8246 13.4142 14.889 13.2436 14.889Z" fill="white"/>
<path d="M6.81211 14.889C6.64153 14.889 6.47794 14.8246 6.35732 14.71C6.23671 14.5954 6.16895 14.44 6.16895 14.2779V8.16678C6.16895 8.0047 6.23671 7.84926 6.35732 7.73465C6.47794 7.62005 6.64153 7.55566 6.81211 7.55566C6.98269 7.55566 7.14628 7.62005 7.26689 7.73465C7.38751 7.84926 7.45527 8.0047 7.45527 8.16678V14.2779C7.45527 14.44 7.38751 14.5954 7.26689 14.71C7.14628 14.8246 6.98269 14.889 6.81211 14.889Z" fill="white"/>
</svg>
