<svg width="20" height="20" viewBox="0 0 20 20" fill="none" xmlns="http://www.w3.org/2000/svg">
<path fill-rule="evenodd" clip-rule="evenodd" d="M5.00001 6.1251C4.58579 6.1251 4.25001 6.46088 4.25001 6.8751V10.6251C4.25001 11.0393 4.58579 11.3751 5.00001 11.3751H8.75001C9.16422 11.3751 9.50001 11.0393 9.50001 10.6251V6.8751C9.50001 6.46088 9.16422 6.1251 8.75001 6.1251H5.00001ZM5.75001 9.8751V7.6251H8.00001V9.8751H5.75001Z" fill="white"/>
<path d="M10.5 10.6251C10.5 10.2109 10.8358 9.8751 11.25 9.8751H15C15.4142 9.8751 15.75 10.2109 15.75 10.6251C15.75 11.0393 15.4142 11.3751 15 11.3751H11.25C10.8358 11.3751 10.5 11.0393 10.5 10.6251Z" fill="white"/>
<path d="M5.00001 12.3751C4.58579 12.3751 4.25001 12.7109 4.25001 13.1251C4.25001 13.5393 4.58579 13.8751 5.00001 13.8751H15C15.4142 13.8751 15.75 13.5393 15.75 13.1251C15.75 12.7109 15.4142 12.3751 15 12.3751H5.00001Z" fill="white"/>
<path fill-rule="evenodd" clip-rule="evenodd" d="M4.37501 2.2251C2.50295 2.2251 0.975006 3.75304 0.975006 5.6251V14.3751C0.975006 16.2472 2.50295 17.7751 4.37501 17.7751H15.625C17.4971 17.7751 19.025 16.2472 19.025 14.3751V5.6251C19.025 3.75304 17.4971 2.2251 15.625 2.2251H4.37501ZM2.77501 5.6251C2.77501 4.74715 3.49706 4.0251 4.37501 4.0251H15.625C16.5029 4.0251 17.225 4.74715 17.225 5.6251V14.3751C17.225 15.253 16.5029 15.9751 15.625 15.9751H4.37501C3.49706 15.9751 2.77501 15.253 2.77501 14.3751V5.6251Z" fill="white"/>
</svg>
