<svg width="20" height="20" viewBox="0 0 20 20" fill="none" xmlns="http://www.w3.org/2000/svg">
<g clip-path="url(#clip0_138_1278)">
<path d="M18.1295 6.56498C18.5899 7.65346 18.8235 8.80934 18.8235 10C18.8235 11.1907 18.5899 12.3466 18.1293 13.4352C17.7638 14.3035 17.2589 15.1076 16.6289 15.8246C16.5056 15.965 16.3744 16.105 16.2399 16.2396C15.4292 17.0503 14.4854 17.686 13.4348 18.1295C12.3465 18.5899 11.1908 18.8235 9.99988 18.8235C8.80894 18.8235 7.65317 18.5899 6.56447 18.1293C5.51376 17.6859 4.57023 17.0502 3.76 16.2397C3.62717 16.107 3.49623 15.9675 3.37117 15.8253C3.23541 15.6711 3.23541 15.4399 3.37117 15.2857C3.49623 15.1435 3.62706 15.004 3.76 14.8711C4.57011 14.061 5.51388 13.4251 6.56459 12.9815C7.65317 12.5211 8.80906 12.2876 9.99976 12.2876C11.1906 12.2876 12.3464 12.5211 13.4349 12.9816C13.7067 13.0963 13.9759 13.2264 14.2348 13.3682C14.4328 13.4765 14.5053 13.7246 14.3971 13.9226C14.2885 14.1205 14.0401 14.1927 13.8426 14.0847C13.6076 13.956 13.3635 13.8382 13.1168 13.734C12.1293 13.3163 11.0806 13.1045 9.99964 13.1045C8.91894 13.1045 7.87 13.3163 6.88247 13.734C5.92906 14.1366 5.07294 14.7136 4.33753 15.449C4.30259 15.484 4.26764 15.5196 4.23282 15.5556C4.26764 15.5916 4.30247 15.6271 4.33753 15.662C4.98106 16.3058 5.71694 16.8279 6.52941 17.2179C6.64553 17.2737 6.76306 17.3267 6.88223 17.377C7.87012 17.7947 8.91882 18.0066 9.99976 18.0066C11.0807 18.0066 12.1294 17.7947 13.1168 17.3771C14.0701 16.9747 14.9262 16.3978 15.662 15.6622C15.7841 15.5399 15.9029 15.4133 16.0148 15.2859C16.5867 14.635 17.0449 13.9055 17.3765 13.1177C17.7946 12.1295 18.0065 11.0809 18.0065 10C18.0065 8.91922 17.7946 7.87051 17.3768 6.88298C16.9745 5.92945 16.3975 5.07334 15.6621 4.33793C14.9265 3.60216 14.0702 3.02522 13.1173 2.62298C12.1296 2.20522 11.0809 1.99345 10 1.99345C8.91929 1.99345 7.87035 2.20522 6.88282 2.62298C5.92941 3.02557 5.07329 3.6024 4.33776 4.33781C3.60211 5.07345 3.02517 5.92969 2.62306 6.88263C2.20517 7.87016 1.99341 8.91887 1.99341 9.99993C1.99341 10.9357 2.15341 11.8523 2.46882 12.7243C2.54564 12.9365 2.43588 13.1707 2.22376 13.2475C2.01117 13.3242 1.77741 13.2144 1.7007 13.0023C1.35282 12.041 1.17647 11.0307 1.17647 10C1.17647 8.8091 1.40988 7.65322 1.87047 6.56463C2.31376 5.5144 2.94964 4.57075 3.76023 3.76016C4.57035 2.94993 5.51412 2.31404 6.56482 1.8704C7.65341 1.41004 8.80929 1.17651 10 1.17651C11.1908 1.17651 12.3466 1.41004 13.4352 1.87063C14.4856 2.31381 15.4293 2.94969 16.2398 3.76028C17.0502 4.57051 17.6859 5.51428 18.1295 6.56498Z" fill="white"/>
<path fill-rule="evenodd" clip-rule="evenodd" d="M10 4.03589C11.7795 4.03589 13.2272 5.48365 13.2272 7.26307C13.2272 9.04248 11.7795 10.4902 10 10.4902C8.22047 10.4902 6.77283 9.04248 6.77283 7.26307C6.77283 5.48365 8.22047 4.03589 10 4.03589ZM10 4.85295C8.67118 4.85295 7.58989 5.93412 7.58989 7.26307C7.58989 8.59201 8.67106 9.67318 10 9.67318C11.3289 9.67318 12.4101 8.59201 12.4101 7.26307C12.4101 5.93412 11.3288 4.85295 10 4.85295Z" fill="white"/>
<path d="M18.1295 6.56498C18.5899 7.65346 18.8235 8.80934 18.8235 10C18.8235 11.1907 18.5899 12.3466 18.1293 13.4352C17.7638 14.3035 17.2589 15.1076 16.6289 15.8246C16.5056 15.965 16.3744 16.105 16.2399 16.2396C15.4292 17.0503 14.4854 17.686 13.4348 18.1295C12.3465 18.5899 11.1908 18.8235 9.99988 18.8235C8.80894 18.8235 7.65317 18.5899 6.56447 18.1293C5.51376 17.6859 4.57023 17.0502 3.76 16.2397C3.62717 16.107 3.49623 15.9675 3.37117 15.8253C3.23541 15.6711 3.23541 15.4399 3.37117 15.2857C3.49623 15.1435 3.62706 15.004 3.76 14.8711C4.57011 14.061 5.51388 13.4251 6.56459 12.9815C7.65317 12.5211 8.80906 12.2876 9.99976 12.2876C11.1906 12.2876 12.3464 12.5211 13.4349 12.9816C13.7067 13.0963 13.9759 13.2264 14.2348 13.3682C14.4328 13.4765 14.5053 13.7246 14.3971 13.9226C14.2885 14.1205 14.0401 14.1927 13.8426 14.0847C13.6076 13.956 13.3635 13.8382 13.1168 13.734C12.1293 13.3163 11.0806 13.1045 9.99964 13.1045C8.91894 13.1045 7.87 13.3163 6.88247 13.734C5.92906 14.1366 5.07294 14.7136 4.33753 15.449C4.30259 15.484 4.26764 15.5196 4.23282 15.5556C4.26764 15.5916 4.30247 15.6271 4.33753 15.662C4.98106 16.3058 5.71694 16.8279 6.52941 17.2179C6.64553 17.2737 6.76306 17.3267 6.88223 17.377C7.87012 17.7947 8.91882 18.0066 9.99976 18.0066C11.0807 18.0066 12.1294 17.7947 13.1168 17.3771C14.0701 16.9747 14.9262 16.3978 15.662 15.6622C15.7841 15.5399 15.9029 15.4133 16.0148 15.2859C16.5867 14.635 17.0449 13.9055 17.3765 13.1177C17.7946 12.1295 18.0065 11.0809 18.0065 10C18.0065 8.91922 17.7946 7.87051 17.3768 6.88298C16.9745 5.92945 16.3975 5.07334 15.6621 4.33793C14.9265 3.60216 14.0702 3.02522 13.1173 2.62298C12.1296 2.20522 11.0809 1.99345 10 1.99345C8.91929 1.99345 7.87035 2.20522 6.88282 2.62298C5.92941 3.02557 5.07329 3.6024 4.33776 4.33781C3.60211 5.07345 3.02517 5.92969 2.62306 6.88263C2.20517 7.87016 1.99341 8.91887 1.99341 9.99993C1.99341 10.9357 2.15341 11.8523 2.46882 12.7243C2.54564 12.9365 2.43588 13.1707 2.22376 13.2475C2.01117 13.3242 1.77741 13.2144 1.7007 13.0023C1.35282 12.041 1.17647 11.0307 1.17647 10C1.17647 8.8091 1.40988 7.65322 1.87047 6.56463C2.31376 5.5144 2.94964 4.57075 3.76023 3.76016C4.57035 2.94993 5.51412 2.31404 6.56482 1.8704C7.65341 1.41004 8.80929 1.17651 10 1.17651C11.1908 1.17651 12.3466 1.41004 13.4352 1.87063C14.4856 2.31381 15.4293 2.94969 16.2398 3.76028C17.0502 4.57051 17.6859 5.51428 18.1295 6.56498Z" stroke="white" stroke-width="0.8"/>
<path fill-rule="evenodd" clip-rule="evenodd" d="M10 4.03589C11.7795 4.03589 13.2272 5.48365 13.2272 7.26307C13.2272 9.04248 11.7795 10.4902 10 10.4902C8.22047 10.4902 6.77283 9.04248 6.77283 7.26307C6.77283 5.48365 8.22047 4.03589 10 4.03589ZM10 4.85295C8.67118 4.85295 7.58989 5.93412 7.58989 7.26307C7.58989 8.59201 8.67106 9.67318 10 9.67318C11.3289 9.67318 12.4101 8.59201 12.4101 7.26307C12.4101 5.93412 11.3288 4.85295 10 4.85295Z" stroke="white" stroke-width="0.8"/>
</g>
<defs>
<clipPath id="clip0_138_1278">
<rect width="20" height="20" fill="white"/>
</clipPath>
</defs>
</svg>
