<svg width="20" height="20" viewBox="0 0 20 20" fill="none" xmlns="http://www.w3.org/2000/svg">
<path fill-rule="evenodd" clip-rule="evenodd" d="M3.99998 4.9001C3.39246 4.9001 2.89998 5.39258 2.89998 6.0001V16.0972L3.78196 15.3734C4.16619 15.058 4.73329 15.1139 5.04862 15.4981C5.36395 15.8823 5.3081 16.4494 4.92388 16.7648L2.57093 18.6958C2.30193 18.9166 1.92976 18.9625 1.61518 18.8137C1.30059 18.6649 1.09998 18.3481 1.09998 18.0001V6.0001C1.09998 4.39847 2.39835 3.1001 3.99998 3.1001H16C17.6016 3.1001 18.9 4.39847 18.9 6.0001V13.5863C18.9 15.1879 17.6016 16.4863 16 16.4863H8.17645C7.67939 16.4863 7.27645 16.0834 7.27645 15.5863C7.27645 15.0892 7.67939 14.6863 8.17645 14.6863H16C16.6075 14.6863 17.1 14.1938 17.1 13.5863V6.0001C17.1 5.39258 16.6075 4.9001 16 4.9001H3.99998Z" fill="white"/>
<path d="M7 10C7 10.5523 6.55228 11 6 11C5.44772 11 5 10.5523 5 10C5 9.44772 5.44772 9 6 9C6.55228 9 7 9.44772 7 10Z" fill="white"/>
<path d="M11 10C11 10.5523 10.5523 11 10 11C9.44772 11 9 10.5523 9 10C9 9.44772 9.44772 9 10 9C10.5523 9 11 9.44772 11 10Z" fill="white"/>
<path d="M15 10C15 10.5523 14.5523 11 14 11C13.4477 11 13 10.5523 13 10C13 9.44772 13.4477 9 14 9C14.5523 9 15 9.44772 15 10Z" fill="white"/>
</svg>
