<svg width="20" height="20" viewBox="0 0 20 20" fill="none" xmlns="http://www.w3.org/2000/svg">
<path d="M12.5 4.16663V5.83329M12.5 9.16663V10.8333M12.5 14.1666V15.8333M4.16667 4.16663C3.24619 4.16663 2.5 4.91282 2.5 5.83329V8.33329C3.42048 8.33329 4.16667 9.07946 4.16667 9.99996C4.16667 10.9205 3.42048 11.6666 2.5 11.6666V14.1666C2.5 15.0871 3.24619 15.8333 4.16667 15.8333H15.8333C16.7538 15.8333 17.5 15.0871 17.5 14.1666V11.6666C16.5795 11.6666 15.8333 10.9205 15.8333 9.99996C15.8333 9.07946 16.5795 8.33329 17.5 8.33329V5.83329C17.5 4.91282 16.7538 4.16663 15.8333 4.16663H4.16667Z" stroke="white" stroke-width="1.8" stroke-linecap="round" stroke-linejoin="round"/>
</svg>
