<svg width="20" height="20" viewBox="0 0 20 20" fill="none" xmlns="http://www.w3.org/2000/svg">
<path fill-rule="evenodd" clip-rule="evenodd" d="M1.60001 4.16668C1.60001 3.20939 2.37605 2.43335 3.33334 2.43335H6.66667C7.62397 2.43335 8.40001 3.20939 8.40001 4.16668V7.50002C8.40001 8.45731 7.62397 9.23335 6.66667 9.23335H3.33334C2.37605 9.23335 1.60001 8.45731 1.60001 7.50002V4.16668ZM3.40001 4.23335V7.43335H6.60001V4.23335H3.40001Z" fill="white"/>
<path d="M10.8333 3.26685C10.3363 3.26685 9.93333 3.66979 9.93333 4.16685C9.93333 4.6639 10.3363 5.06685 10.8333 5.06685H17.5C17.9971 5.06685 18.4 4.6639 18.4 4.16685C18.4 3.66979 17.9971 3.26685 17.5 3.26685H10.8333Z" fill="white"/>
<path d="M10.8333 6.6001C10.3363 6.6001 9.93333 7.00304 9.93333 7.5001C9.93333 7.99715 10.3363 8.4001 10.8333 8.4001H15C15.4971 8.4001 15.9 7.99715 15.9 7.5001C15.9 7.00304 15.4971 6.6001 15 6.6001H10.8333Z" fill="white"/>
<path d="M9.93333 12.5001C9.93333 12.003 10.3363 11.6001 10.8333 11.6001H17.5C17.9971 11.6001 18.4 12.003 18.4 12.5001C18.4 12.9972 17.9971 13.4001 17.5 13.4001H10.8333C10.3363 13.4001 9.93333 12.9972 9.93333 12.5001Z" fill="white"/>
<path d="M10.8333 14.9333C10.3363 14.9333 9.93333 15.3363 9.93333 15.8333C9.93333 16.3304 10.3363 16.7333 10.8333 16.7333H15C15.4971 16.7333 15.9 16.3304 15.9 15.8333C15.9 15.3363 15.4971 14.9333 15 14.9333H10.8333Z" fill="white"/>
<path fill-rule="evenodd" clip-rule="evenodd" d="M3.33334 10.7668C2.37605 10.7668 1.60001 11.5429 1.60001 12.5002V15.8335C1.60001 16.7908 2.37605 17.5668 3.33334 17.5668H6.66667C7.62397 17.5668 8.40001 16.7908 8.40001 15.8335V12.5002C8.40001 11.5429 7.62397 10.7668 6.66667 10.7668H3.33334ZM3.40001 15.7668V12.5668H6.60001V15.7668H3.40001Z" fill="white"/>
</svg>
