<svg width="20" height="20" viewBox="0 0 20 20" fill="none" xmlns="http://www.w3.org/2000/svg">
<path d="M18.9167 6.83341L16.0833 4.66675C16 4.58341 16 4.58341 15.9167 4.50008L13.9167 3.00008C13.8333 2.91675 13.75 2.91675 13.6667 2.91675H6.33334C6.25 2.91675 6.16667 2.91675 6.08334 3.00008L1.08334 6.83341C1.00001 6.91675 0.916672 7.00008 0.916672 7.16675C0.916672 7.25008 0.916672 7.41675 1.00001 7.50008L9.66667 17.9167C9.83334 18.0834 10.1667 18.0834 10.3333 17.9167L19 7.41675C19.0833 7.33341 19.0833 7.25008 19.0833 7.08341C19.0833 7.00008 19 6.91675 18.9167 6.83341ZM5.41667 4.58341L6.33334 3.91675C6.41667 3.83341 6.5 3.83341 6.58334 3.83341H13.4167C13.5 3.83341 13.5833 3.83341 13.6667 3.91675L14.5833 4.66675C14.6667 4.75008 14.75 4.83341 14.75 5.00008C14.75 5.16675 14.6667 5.25008 14.5833 5.33341L13.3333 6.16675C13.25 6.25008 13.1667 6.25008 13.0833 6.25008L7.16667 6.16675C7.08334 6.16675 7.00001 6.16675 6.91667 6.08341L5.5 5.25008C5.33334 5.16675 5.33334 5.08341 5.25001 4.91675C5.25001 4.75008 5.33334 4.66675 5.41667 4.58341ZM4.08334 9.83341C3.91667 9.83341 3.83334 9.75008 3.75001 9.66675L2.16667 7.58342C2.08334 7.50008 2.00001 7.41675 2.08334 7.25008C2.08334 7.16675 2.16667 7.08341 2.25001 7.00008L4.08334 5.58341C4.25001 5.50008 4.41667 5.50008 4.58334 5.58341L6.08334 6.50008C6.16667 6.58341 6.25001 6.66675 6.25001 6.75008C6.25001 6.83341 6.25001 7.00008 6.16667 7.08341L4.41667 9.66675C4.33334 9.75008 4.16667 9.83341 4.08334 9.83341ZM14.8333 11.5834L10.3333 16.5001C10.25 16.5834 10.1667 16.6667 10 16.6667C9.83334 16.6667 9.75001 16.5834 9.66667 16.5001L5.16667 11.5834C5.08334 11.4167 5.08334 11.2501 5.16667 11.1667C5.25001 11.0001 5.41667 10.9167 5.5 10.9167H14.5833C14.75 10.9167 14.9167 11.0001 14.9167 11.1667C15 11.2501 14.9167 11.4167 14.8333 11.5834ZM14.9167 9.83341C14.8333 10.0001 14.6667 10.0834 14.5833 10.0834H5.91667C5.75001 10.0834 5.58334 10.0001 5.58334 9.83341C5.58334 9.66675 5.5 9.50008 5.58334 9.41675L7.08334 7.16675C7.16667 7.08341 7.25 7.00008 7.41667 7.00008L13 7.08341C13.1667 7.08341 13.25 7.16675 13.3333 7.25008L14.9167 9.41675C15 9.50008 15 9.66675 14.9167 9.83341ZM17.8333 7.58342L16.5 9.33341C16.4167 9.41675 16.3333 9.50008 16.1667 9.50008C16 9.50008 15.9167 9.41675 15.8333 9.33341L14.1667 7.00008C14 6.83341 14.0833 6.58341 14.25 6.41675L15.4167 5.58341C15.5833 5.50008 15.75 5.50008 15.9167 5.58341L17.75 7.00008C17.8333 7.08341 17.9167 7.16675 17.9167 7.25008C18 7.41675 17.9167 7.50008 17.8333 7.58342Z" fill="white" stroke="white" stroke-width="0.8"/>
</svg>
