<svg width="20" height="20" viewBox="0 0 20 20" fill="none" xmlns="http://www.w3.org/2000/svg">
<path fill-rule="evenodd" clip-rule="evenodd" d="M3.99998 4.9001C3.39246 4.9001 2.89998 5.39258 2.89998 6.0001V16.0972L3.78196 15.3734C4.16619 15.058 4.73329 15.1139 5.04862 15.4981C5.36395 15.8823 5.3081 16.4494 4.92388 16.7648L2.57093 18.6958C2.30193 18.9166 1.92976 18.9625 1.61518 18.8137C1.30059 18.6649 1.09998 18.3481 1.09998 18.0001V6.0001C1.09998 4.39847 2.39835 3.1001 3.99998 3.1001H16C17.6016 3.1001 18.9 4.39847 18.9 6.0001V13.5863C18.9 15.1879 17.6016 16.4863 16 16.4863H8.17645C7.67939 16.4863 7.27645 16.0834 7.27645 15.5863C7.27645 15.0892 7.67939 14.6863 8.17645 14.6863H16C16.6075 14.6863 17.1 14.1938 17.1 13.5863V6.0001C17.1 5.39258 16.6075 4.9001 16 4.9001H3.99998Z" fill="white"/>
<circle cx="6" cy="10" r="1" fill="white"/>
<circle cx="10" cy="10" r="1" fill="white"/>
<circle cx="14" cy="10" r="1" fill="white"/>
</svg>
