<svg width="193" height="62" viewBox="0 0 193 62" fill="none" xmlns="http://www.w3.org/2000/svg">
<g clip-path="url(#clip0_119_3)">
<path d="M17.0872 47.9822C19.4341 51.2232 14.6366 55.7761 18.5126 53.0113C27.1298 46.8646 28.71 45.6353 37.2408 37.9275C51.2581 25.2625 37.4399 12.174 27.1298 22.7426C7.13431 43.2395 40.0861 42.4757 18.5126 22.7427C10.4136 15.3346 0.323442 26.1893 8.1565 33.3089L13.1756 37.9275" stroke="#DB2778" stroke-width="3" stroke-linecap="round" stroke-linejoin="round"/>
<path d="M163 26.7496C163.795 26.0995 163.517 24.4093 164.789 25.4494C166.379 27.3997 166.379 27.3997 168.764 25.4494C171.149 23.4992 168.167 28.5373 169.757 28.3748C171.347 28.2123 174.527 25.1244 172.142 30" stroke="#F59E0B" stroke-width="1.5" stroke-linecap="round"/>
<path d="M62.8914 30.7513H65.6307M68.3701 30.7513H65.6307M60.9191 37.3257H70.1233M65.6307 30.7513V42.8044" stroke="#DB2778" stroke-width="2.5" stroke-linecap="round" stroke-linejoin="round"/>
<circle cx="65.5209" cy="48.0639" r="4.66698" stroke="#DB2778" stroke-width="2.5"/>
<path d="M83.2716 31.1896V47.8448C83.2716 50.5075 81.5056 52.6661 79.327 52.6661C77.1484 52.6661 75.3823 50.5075 75.3823 47.8448V31.1896" stroke="#DB2778" stroke-width="2.5" stroke-linecap="round"/>
<path d="M110.833 45.215V47.8448C110.833 50.5075 108.674 52.666 106.012 52.666C103.349 52.666 101.191 50.5075 101.191 47.8448V35.3534" stroke="#DB2778" stroke-width="2.5" stroke-linecap="round"/>
<path d="M140.733 43.8603L143.668 49.2014C143.668 52.0255 140.436 52.2278 136.196 52.2278C131.956 52.2278 129.232 52.4554 128.767 49.2014C128.301 45.9474 133.637 43.4929 136.196 37.4497" stroke="#DB2778" stroke-width="2.5" stroke-linecap="round"/>
<path d="M71.8761 34.696H86.7781" stroke="#DB2778" stroke-width="2.5" stroke-linecap="round"/>
<path d="M156.028 35.5725H173.999" stroke="#DB2778" stroke-width="2.5" stroke-linecap="round"/>
<path d="M157.344 43.4618H173.122" stroke="#DB2778" stroke-width="2.5" stroke-linecap="round"/>
<path d="M155.152 51.3511H174.875" stroke="#DB2778" stroke-width="2.5" stroke-linecap="round"/>
<path d="M164.795 35.5725L164.795 50.0363" stroke="#DB2778" stroke-width="2.5" stroke-linecap="round"/>
<path d="M75.8206 42.5853H82.8333" stroke="#DB2778" stroke-width="2.5" stroke-linecap="round"/>
<path d="M95.2242 37.8755C95.2765 39.5081 94.8878 43.4088 92.914 45.951" stroke="#DB2778" stroke-width="2.5" stroke-linecap="round"/>
<path d="M130.494 31.4581C129.833 32.9518 127.791 36.2977 124.91 37.732" stroke="#DB2778" stroke-width="2.5" stroke-linecap="round"/>
<path d="M142.035 31.4581C142.696 32.9518 144.738 36.2977 147.619 37.732" stroke="#DB2778" stroke-width="2.5" stroke-linecap="round"/>
<path d="M113.809 37.8668C114.892 39.0892 117.085 42.3383 117.191 45.555" stroke="#DB2778" stroke-width="2.5" stroke-linecap="round"/>
<path d="M103.524 30.2495C105.042 30.8521 107.108 32.4449 108.861 34.6363" stroke="#DB2778" stroke-width="2.5" stroke-linecap="round"/>
<path d="M161.274 30.5307C162.896 30.3352 165.471 30.7482 168.058 31.8365" stroke="#DB2778" stroke-width="2.5" stroke-linecap="round"/>
<circle cx="164" cy="22" r="1" fill="#F59E0B"/>
<ellipse cx="175" cy="24.5" rx="1" ry="0.5" fill="#F59E0B"/>
<circle cx="170.5" cy="21.5" r="1.5" fill="#F59E0B"/>
<path d="M32 13.8491C33.431 12.4189 32.9301 8.70049 35.2197 10.9888C38.0817 15.2793 38.0817 15.2793 42.3746 10.9888C46.6676 6.69821 41.3014 17.7821 44.1634 17.4246C47.0253 17.067 52.7493 10.2737 48.4563 21" stroke="#F59E0B" stroke-width="2" stroke-linecap="round"/>
<circle cx="33.5" cy="5.5" r="1.5" fill="#F59E0B"/>
<ellipse cx="52.5" cy="11" rx="1.5" ry="1" fill="#F59E0B"/>
<circle cx="45" cy="5" r="2" fill="#F59E0B"/>
<path d="M67.681 10.9544C65.9262 9.9938 62.337 8.92114 62.0179 12.3152C61.6191 16.5579 68 13.4359 68 17.1182C68 21.601 62.7358 19.6798 62.0179 19.0394" stroke="#DB2778" stroke-width="1.5" stroke-linecap="round"/>
<path d="M71.0876 14C70.7898 16.058 71.1233 20 74.1256 20C77.1278 20 77.1636 16.058 76.8955 14" stroke="#DB2778" stroke-width="1.5" stroke-linecap="round"/>
<path d="M137.073 14C136.825 16.058 137.103 20 139.605 20C142.107 20 142.136 16.058 141.913 14" stroke="#DB2778" stroke-width="1.5" stroke-linecap="round"/>
<circle cx="83" cy="17" r="3" stroke="#DB2778" stroke-width="1.5"/>
<circle cx="92" cy="17" r="3" stroke="#DB2778" stroke-width="1.5"/>
<path d="M80 21.6753C80 23.5115 81.3431 25 83 25C84.6569 25 86 23.5115 86 21.6753V17" stroke="#DB2778" stroke-width="1.5" stroke-linecap="round"/>
<path d="M137 22.2485C137 23.7681 138.119 25 139.5 25C140.881 25 142 23.7681 142 22.2485V16" stroke="#DB2778" stroke-width="1.5" stroke-linecap="round"/>
<path d="M95 17V21" stroke="#DB2778" stroke-width="1.5" stroke-linecap="round"/>
<circle cx="121" cy="17" r="3" stroke="#DB2778" stroke-width="1.5"/>
<path d="M124 17V21" stroke="#DB2778" stroke-width="1.5" stroke-linecap="round"/>
<path d="M98 21V16.9324C98.0333 16.018 98.68 14.1514 101 14" stroke="#DB2778" stroke-width="1.5" stroke-linecap="round"/>
<path d="M108 21V12.5882C108 11.375 109.024 10 111.12 10C113.481 10 114.156 11.4559 114.156 12.5882C114.156 13.9632 112.216 14.5987 110.698 15.0147C110.108 15.1765 115.083 14.3676 114.999 17.7647C114.944 19.9679 112.558 20.6011 110.698 20.5608" stroke="#DB2778" stroke-width="1.5" stroke-linecap="round"/>
<path d="M127 21V12.5882C127 11.375 128.024 10 130.12 10C132.481 10 133.156 11.4559 133.156 12.5882C133.156 13.9632 131.216 14.5987 129.698 15.0147C129.108 15.1765 134.083 14.3676 133.999 17.7647C133.944 19.9679 131.558 20.6011 129.698 20.5608" stroke="#DB2778" stroke-width="1.5" stroke-linecap="round"/>
</g>
<defs>
<clipPath id="clip0_119_3">
<rect width="193" height="62" fill="white"/>
</clipPath>
</defs>
</svg>
